<?xml version="1.0" encoding="utf-8"?>
<!-- Generator: Adobe Illustrator 19.2.1, SVG Export Plug-In . SVG Version: 6.00 Build 0)  -->
<svg version="1.1" id="Layer_1" xmlns="http://www.w3.org/2000/svg" xmlns:xlink="http://www.w3.org/1999/xlink" x="0px" y="0px"
	 viewBox="0 0 525 120" style="enable-background:new 0 0 525 120;" xml:space="preserve">
<style type="text/css">
	.st0{fill:#00BC87;}
	.st1{fill:#6B6B6B;}
</style>
<g>
	<g>
		<path class="st0" d="M45,0C22,0,0,42.5,0,75c0,24.9,20.1,45,45,45c24.9,0,45-20.1,45-45C90,42.5,68,0,45,0z M45,97.5
			c-12.4,0-22.5-10.1-22.5-22.5c0-16.7,11.4-37.5,22.5-37.5S67.5,58.3,67.5,75C67.5,87.4,57.4,97.5,45,97.5z"/>
	</g>
	<g>
		<path class="st1" d="M170.6,96.4h-9.3l-0.8-5.4c-3.6,4.4-8.8,6.5-15.5,6.5c-6.2,0-11-1.6-14.6-4.9c-3.6-3.3-5.3-7.5-5.3-12.8
			c0-5.3,1.8-9.6,5.5-12.9c3.7-3.4,8.6-5.1,14.7-5.1c5.9,0,10.4,1.7,13.7,5v-4.8c0-4.7-1.2-8.2-3.5-10.6c-2.3-2.4-5.6-3.6-9.8-3.6
			c-2.6,0-5.1,0.3-7.5,0.9c-2.4,0.6-4.1,1.2-5.1,1.8l-1.7,0.9l-3-9.1c0.5-0.4,1.3-0.8,2.2-1.4c0.9-0.5,3.1-1.2,6.4-2.1
			c3.3-0.9,6.9-1.3,10.6-1.3c7.2,0,12.8,2,16.9,6.1c4.1,4.1,6.1,9.9,6.1,17.5V96.4z M156.4,86.2c2.1-1.8,3.2-4.1,3.2-6.9
			s-1.1-5.1-3.2-6.9c-2.1-1.8-5-2.7-8.5-2.7c-3.4,0-6.1,0.9-8.2,2.7c-2.1,1.8-3.2,4.1-3.2,6.9s1.1,5.1,3.2,6.9
			c2.1,1.8,4.8,2.7,8.2,2.7C151.4,88.9,154.2,88,156.4,86.2z"/>
		<path class="st1" d="M178.7,38.6h12.4l12.7,41.2l12.7-41.2h11.7l-19.5,57.7h-10.7L178.7,38.6z"/>
		<path class="st1" d="M235.8,60.4c0-7,2.2-12.6,6.5-16.7c4.3-4.2,9.9-6.2,16.7-6.2c6.9,0,12.5,2,16.7,6.1c4.2,4.1,6.3,9.6,6.3,16.5
			v14.4c0,7.1-2.2,12.6-6.5,16.8c-4.3,4.1-9.9,6.2-16.8,6.2c-6.9,0-12.4-2-16.6-6c-4.2-4-6.2-9.5-6.2-16.6V60.4z M247.3,74.5
			c0,4,1.1,7.1,3.2,9.3c2.1,2.3,4.9,3.4,8.4,3.4c3.5,0,6.2-1.1,8.3-3.4c2.1-2.3,3.2-5.4,3.2-9.3V60.4c0-3.9-1.1-7-3.2-9.3
			s-4.9-3.4-8.3-3.4c-3.5,0-6.3,1.1-8.4,3.4s-3.2,5.4-3.2,9.3V74.5z"/>
		<path class="st1" d="M330.2,74.2h11.1v1.2c0,6.7-2.1,12-6.2,16c-4.2,4-9.6,6-16.2,6c-6.7,0-12-2-16.1-5.9
			c-4.1-3.9-6.1-9.3-6.1-16.2V59.9c0-6.8,2.1-12.3,6.3-16.3s9.6-6.1,16.2-6.1c6.6,0,11.9,2,16,5.9c4.1,3.9,6.1,9.2,6.1,16v1h-11.1
			v-0.7c0-3.6-1-6.5-3-8.7s-4.6-3.3-7.9-3.3c-3.4,0-6.1,1.1-8,3.3c-2,2.2-3,5.1-3,8.9v15.2c0,3.8,1,6.7,3,8.9c2,2.2,4.7,3.3,8,3.3
			c3.3,0,5.9-1.1,7.9-3.2s3-5,3-8.6V74.2z"/>
		<path class="st1" d="M356.2,60.4c0-7,2.2-12.6,6.5-16.7c4.3-4.2,9.9-6.2,16.7-6.2c6.9,0,12.5,2,16.7,6.1c4.2,4.1,6.3,9.6,6.3,16.5
			v14.4c0,7.1-2.2,12.6-6.5,16.8c-4.3,4.1-9.9,6.2-16.8,6.2s-12.4-2-16.6-6c-4.2-4-6.2-9.5-6.2-16.6V60.4z M367.7,74.5
			c0,4,1.1,7.1,3.2,9.3c2.1,2.3,4.9,3.4,8.4,3.4c3.5,0,6.2-1.1,8.3-3.4c2.1-2.3,3.2-5.4,3.2-9.3V60.4c0-3.9-1.1-7-3.2-9.3
			c-2.1-2.3-4.9-3.4-8.3-3.4c-3.5,0-6.3,1.1-8.4,3.4c-2.1,2.3-3.2,5.4-3.2,9.3V74.5z"/>
		<path class="st1" d="M463.4,96.4h-10.1l-0.6-6.8c-3.4,5.3-8.6,7.9-15.5,7.9c-6.2,0-11.1-1.9-14.6-5.6c-3.5-3.7-5.3-8.9-5.3-15.6
			V59.1c0-6.8,1.8-12,5.5-15.9c3.6-3.8,8.6-5.7,14.8-5.7s11,2.2,14.3,6.5V17.5h11.6V96.4z M451.8,60.4c0-3.9-1.1-7-3.2-9.3
			c-2.1-2.3-4.9-3.4-8.3-3.4c-3.5,0-6.3,1.1-8.4,3.4c-2.1,2.3-3.2,5.4-3.2,9.3v14.1c0,4,1.1,7.1,3.2,9.3c2.1,2.3,4.9,3.4,8.4,3.4
			c3.5,0,6.2-1.1,8.3-3.4c2.1-2.3,3.2-5.4,3.2-9.3V60.4z"/>
		<path class="st1" d="M524.8,78.1c-0.1,0.5-0.2,1.2-0.3,2.1c-0.1,0.9-0.7,2.4-1.6,4.6c-0.9,2.2-2.1,4.2-3.5,5.9
			c-1.5,1.7-3.7,3.3-6.7,4.7c-3,1.4-6.5,2.1-10.5,2.1c-6.9,0-12.4-2-16.6-6c-4.2-4-6.2-9.5-6.2-16.6V60.4c0-7,2.2-12.6,6.5-16.7
			c4.3-4.2,9.9-6.2,16.7-6.2c6.8,0,12.2,2,16.3,6.1c4.1,4.1,6.2,9.6,6.2,16.5v8.3h-34.2v6.1c0,4,1.1,7.1,3.2,9.3
			c2.1,2.3,4.9,3.4,8.4,3.4c2,0,3.8-0.4,5.3-1.2c1.5-0.8,2.7-1.7,3.4-2.9c0.7-1.1,1.3-2.2,1.8-3.3c0.5-1.1,0.8-2,0.8-2.9l0.1-1.1
			L524.8,78.1z M490.8,60.8h23.1v-1.5c0-3.9-1.1-7-3.2-9.3c-2.1-2.3-4.9-3.4-8.3-3.4c-3.5,0-6.3,1.1-8.4,3.4
			c-2.1,2.3-3.2,5.4-3.2,9.3V60.8z"/>
	</g>
</g>
</svg>
